# xmcd
# 
# Track frame offsets:
#     150
#     25112
#     43775
#     62550
#     80608
#     101676
#     121992
#     148965
# 
# Disc length: 2274
# 
# Revision: 0
# Processed by: cddbd v1.5.2PL0 Copyright (c) Steve Scherf et al.
# Submitted via: fre:ac v1.0.17
# 
DISCID=6c08e008
DTITLE=WORLD ORDER - HAVE A NICE DAY
DYEAR=2015
DGENRE=JPop
TTITLE0=IMPERIALISM
TTITLE1=LAST DANCE
TTITLE2=THIS IS LIFE
TTITLE3=HAVE A NICE DAY
TTITLE4=INFORMAL EMPIRE
TTITLE5=WORD ORDER -Welcome to TOKYO Remix-
TTITLE6=MACHINE CIVILIZATION -Inner Child Remix-
TTITLE7=AQUARIUS -3.8 Remix-
EXTD=
EXTT0=
EXTT1=
EXTT2=
EXTT3=
EXTT4=
EXTT5=
EXTT6=
EXTT7=
PLAYORDER=
